<svg id="Component_18_48" data-name="Component 18 – 48" xmlns="http://www.w3.org/2000/svg" width="31" height="32.474" viewBox="0 0 31 32.474">
  <path id="Path_217" data-name="Path 217" d="M4020.834,736.252h5.265a.276.276,0,0,0,.076.051,2.349,2.349,0,0,1,1.843,1.948c.146.692.322,1.377.462,2.07a.551.551,0,0,0,.326.413c.729.4,1.45.819,2.158,1.257a.552.552,0,0,0,.52.073c.712-.233,1.425-.463,2.142-.679a2.323,2.323,0,0,1,2.8,1.1q1.087,1.86,2.157,3.729a2.37,2.37,0,0,1-.484,3.1c-.538.493-1.081.979-1.606,1.485a.624.624,0,0,0-.167.4q-.022,1.3,0,2.595a.624.624,0,0,0,.17.4c.51.491,1.037.964,1.56,1.442a2.37,2.37,0,0,1,.494,3.2q-1.037,1.8-2.077,3.592a2.343,2.343,0,0,1-2.938,1.152c-.7-.221-1.406-.453-2.113-.664a.528.528,0,0,0-.371.038q-1.17.66-2.323,1.351a.493.493,0,0,0-.213.272c-.182.749-.347,1.5-.515,2.253a2.348,2.348,0,0,1-1.343,1.7c-.178.084-.37.14-.555.209h-5.265a.3.3,0,0,0-.079-.048,2.333,2.333,0,0,1-1.851-1.9c-.16-.721-.314-1.443-.493-2.159a.622.622,0,0,0-.264-.34q-1.109-.67-2.239-1.3a.614.614,0,0,0-.424-.066c-.719.209-1.428.451-2.144.671a2.338,2.338,0,0,1-2.872-1.115q-1.076-1.847-2.139-3.7a2.351,2.351,0,0,1,.464-3.072c.549-.511,1.109-1.01,1.65-1.53a.575.575,0,0,0,.142-.375q.018-1.3,0-2.595a.576.576,0,0,0-.142-.376c-.548-.527-1.117-1.032-1.672-1.553a2.341,2.341,0,0,1-.455-3.023q1.078-1.882,2.172-3.755a2.318,2.318,0,0,1,2.823-1.1c.716.217,1.431.442,2.141.679a.517.517,0,0,0,.49-.072c.719-.439,1.447-.865,2.187-1.268a.529.529,0,0,0,.3-.4q.242-1.129.506-2.254a2.185,2.185,0,0,1,1.038-1.453A7.3,7.3,0,0,1,4020.834,736.252Zm13.585,25.457a1.6,1.6,0,0,0,.286-.294c.7-1.2,1.4-2.414,2.1-3.615a.456.456,0,0,0-.1-.662c-.692-.622-1.364-1.266-2.058-1.884a1.2,1.2,0,0,1-.405-1.163,10.77,10.77,0,0,0,0-3.221,1.175,1.175,0,0,1,.4-1.137c.693-.62,1.365-1.265,2.059-1.884a.471.471,0,0,0,.106-.688q-1.044-1.775-2.061-3.565a.463.463,0,0,0-.648-.24c-.882.292-1.773.552-2.654.846a1.15,1.15,0,0,1-1.181-.214,9.984,9.984,0,0,0-2.838-1.644,1.129,1.129,0,0,1-.756-.9c-.2-.929-.42-1.853-.621-2.781a.423.423,0,0,0-.479-.388q-2.109.013-4.218,0a.4.4,0,0,0-.459.368c-.2.929-.422,1.852-.621,2.781a1.164,1.164,0,0,1-.771.923,10.006,10.006,0,0,0-2.837,1.646,1.132,1.132,0,0,1-1.153.215c-.9-.3-1.813-.566-2.715-.864a.43.43,0,0,0-.6.23q-1.026,1.8-2.079,3.591a.467.467,0,0,0,.112.685c.709.634,1.4,1.284,2.1,1.927a1.084,1.084,0,0,1,.352,1.028,11.309,11.309,0,0,0,0,3.318,1.177,1.177,0,0,1-.407,1.131c-.69.624-1.366,1.263-2.059,1.883a.451.451,0,0,0-.1.66q1.061,1.8,2.094,3.619a.417.417,0,0,0,.575.215c.882-.289,1.775-.547,2.655-.846a1.22,1.22,0,0,1,1.267.227,9.644,9.644,0,0,0,2.756,1.6,1.2,1.2,0,0,1,.813.962c.19.909.416,1.81.605,2.72a.447.447,0,0,0,.525.408q2.061-.016,4.123,0a.449.449,0,0,0,.521-.415c.2-.929.421-1.853.621-2.781a1.109,1.109,0,0,1,.742-.87,10.026,10.026,0,0,0,2.84-1.642,1.147,1.147,0,0,1,1.178-.223c.87.291,1.749.558,2.625.833C4034.148,761.636,4034.25,761.662,4034.419,761.709Z" transform="translate(-4007.954 -736.252)" fill="#fcfcfc"/>
  <path id="Path_218" data-name="Path 218" d="M4145.766,892.25a6.763,6.763,0,1,1,6.745,6.8A6.772,6.772,0,0,1,4145.766,892.25Zm11.5.036a4.733,4.733,0,1,0-4.75,4.735A4.753,4.753,0,0,0,4157.261,892.287Z" transform="translate(-4137.025 -876.045)" fill="#fcfcfc"/>
</svg>
