<svg id="Component_27_13" data-name="Component 27 – 13" xmlns="http://www.w3.org/2000/svg" width="35.75" height="22.023" viewBox="0 0 35.75 22.023">
  <path id="Path_1073" data-name="Path 1073" d="M606.635,163.483c-.014.2-.03.324-.031.453,0,1.694.006,3.388-.007,5.081a.494.494,0,0,0,.358.555,2.937,2.937,0,0,1,1.931,2.832c.024.92.011,1.842,0,2.764a1.5,1.5,0,0,1-1.55,1.591q-1.493.031-2.986,0a1.481,1.481,0,0,1-1.538-1.6c-.008-.921-.015-1.843,0-2.764a2.913,2.913,0,0,1,1.929-2.829.466.466,0,0,0,.34-.521c-.01-2.154,0-4.309-.013-6.464a1.041,1.041,0,0,1,.721-1.086q7.718-3.287,15.421-6.605a1.378,1.378,0,0,1,1.187-.017q7.641,3.3,15.294,6.564c.082.035.161.078.244.108a.794.794,0,0,1,.615.781.823.823,0,0,1-.6.75c-1.175.5-2.341,1.018-3.522,1.5a.584.584,0,0,0-.441.647c.023,1.352-.04,2.706.023,4.055a4.144,4.144,0,0,1-1.662,3.52,13.218,13.218,0,0,1-5.684,2.632,19.963,19.963,0,0,1-13.141-1.21,8.242,8.242,0,0,1-3.052-2.262,3.529,3.529,0,0,1-.826-2.34c.019-1.486,0-2.972.013-4.458a.51.51,0,0,0-.374-.558C608.415,164.251,607.551,163.873,606.635,163.483Zm3.182-.4-.023.08c.1.048.2.1.307.145q5.682,2.435,11.362,4.876a.856.856,0,0,0,.751-.008c2.436-1.054,4.878-2.095,7.318-3.141,2.084-.893,4.168-1.789,6.3-2.705-.162-.082-.276-.147-.4-.2q-6.644-2.85-13.294-5.688a.93.93,0,0,0-.657.012q-5.67,2.407-11.328,4.846c-.128.054-.251.121-.376.181l.02.08h11.652a3.7,3.7,0,0,1,.445.009.7.7,0,0,1,.665.664.688.688,0,0,1-.508.788,1.761,1.761,0,0,1-.526.056q-3.053.005-6.1,0Zm1.363,2.354v.552c0,1.144.037,2.289-.013,3.43a2.2,2.2,0,0,0,.857,1.955,12.06,12.06,0,0,0,2.375,1.543,18.21,18.21,0,0,0,14.165.318,9.274,9.274,0,0,0,2.94-1.727,2.589,2.589,0,0,0,.985-2.18c-.054-1.081-.013-2.167-.013-3.251v-.624c-.2.077-.339.122-.47.178-3.19,1.365-6.382,2.725-9.565,4.1a1.419,1.419,0,0,1-1.228,0c-2.965-1.287-5.937-2.555-8.908-3.827C611.955,165.758,611.6,165.613,611.179,165.435Zm-3.812,9.784c0-1.02.027-1.984-.009-2.945a1.512,1.512,0,0,0-3.021.062c-.015.549,0,1.1,0,1.647,0,.409,0,.819,0,1.236Z" transform="translate(-602.806 -154.751)" fill="#fff"/>
</svg>
