<svg xmlns="http://www.w3.org/2000/svg" width="43.346" height="26.703" viewBox="0 0 43.346 26.703">
  <path id="Path_55" data-name="Path 55" d="M607.448,165.339c-.017.239-.037.393-.038.549,0,2.054.007,4.107-.009,6.161a.6.6,0,0,0,.434.673,3.561,3.561,0,0,1,2.342,3.434c.029,1.116.013,2.234,0,3.351a1.813,1.813,0,0,1-1.879,1.929q-1.81.038-3.621,0a1.8,1.8,0,0,1-1.865-1.935c-.01-1.117-.018-2.234,0-3.351a3.532,3.532,0,0,1,2.339-3.43.565.565,0,0,0,.412-.631c-.012-2.612.005-5.225-.015-7.837a1.262,1.262,0,0,1,.875-1.317q9.357-3.985,18.7-8.009a1.671,1.671,0,0,1,1.44-.02q9.265,4,18.544,7.958c.1.043.195.095.3.131a.963.963,0,0,1,.745.947,1,1,0,0,1-.729.909c-1.425.6-2.838,1.234-4.27,1.816a.708.708,0,0,0-.535.785c.028,1.639-.049,3.281.028,4.917a5.024,5.024,0,0,1-2.016,4.268,16.026,16.026,0,0,1-6.892,3.191,24.205,24.205,0,0,1-15.933-1.467,9.993,9.993,0,0,1-3.7-2.742,4.279,4.279,0,0,1-1-2.837c.023-1.8-.006-3.6.016-5.4a.618.618,0,0,0-.454-.677C609.607,166.269,608.559,165.811,607.448,165.339Zm3.858-.488-.028.1c.124.059.247.122.372.176q6.89,2.953,13.777,5.912a1.038,1.038,0,0,0,.911-.01c2.954-1.278,5.915-2.54,8.873-3.808,2.527-1.083,5.054-2.17,7.641-3.28-.2-.1-.334-.179-.479-.241q-8.056-3.456-16.119-6.9a1.128,1.128,0,0,0-.8.015q-6.875,2.919-13.734,5.875c-.155.066-.3.146-.456.219l.024.1h14.128a4.494,4.494,0,0,1,.54.01.849.849,0,0,1,.806.805.834.834,0,0,1-.616.956,2.135,2.135,0,0,1-.638.068q-3.7.006-7.4,0Zm1.652,2.855v.669c0,1.387.044,2.775-.015,4.159a2.672,2.672,0,0,0,1.04,2.371,14.621,14.621,0,0,0,2.879,1.871,22.079,22.079,0,0,0,17.175.386,11.245,11.245,0,0,0,3.565-2.094,3.139,3.139,0,0,0,1.194-2.644c-.066-1.311-.016-2.628-.016-3.942v-.757c-.246.093-.411.147-.57.216-3.868,1.655-7.738,3.3-11.6,4.975a1.72,1.72,0,0,1-1.489,0c-3.594-1.561-7.2-3.1-10.8-4.641C613.9,168.1,613.472,167.921,612.958,167.7Zm-4.622,11.863c0-1.236.033-2.405-.011-3.57a1.833,1.833,0,0,0-3.662.075c-.018.665-.005,1.331-.006,2,0,.5,0,.993,0,1.5Z" transform="translate(-602.806 -154.751)" fill="#1f1d59"/>
</svg>
