<svg id="Component_17_47" data-name="Component 17 – 47" xmlns="http://www.w3.org/2000/svg" width="31.332" height="31.329" viewBox="0 0 31.332 31.329">
  <g id="Group_439" data-name="Group 439" transform="translate(-724.603 -155.356)">
    <path id="Path_72" data-name="Path 72" d="M747.549,186.684H732.986c-.634-.134-1.28-.229-1.9-.41a9.318,9.318,0,0,1-4.369-3.043,8.236,8.236,0,0,1-1.832-3.439c-.118-.47-.189-.952-.281-1.428V163.682c.018-.068.04-.134.055-.2.137-.615.226-1.244.417-1.841a9.282,9.282,0,0,1,2.736-3.948,8.257,8.257,0,0,1,5.694-2.318c4.505-.03,9.011-.012,13.517-.006a8.179,8.179,0,0,1,2.462.406,9.331,9.331,0,0,1,3.911,2.576,8.534,8.534,0,0,1,2.534,6.1c.005,4.382.01,8.765-.008,13.148a9.389,9.389,0,0,1-.216,1.937,9.518,9.518,0,0,1-3.914,5.577,7.117,7.117,0,0,1-2.486,1.208C748.73,186.472,748.135,186.565,747.549,186.684Zm-20.5-15.692c0,2.182-.015,4.364.01,6.546a7.7,7.7,0,0,0,.224,1.719,6.687,6.687,0,0,0,2.131,3.249,6.041,6.041,0,0,0,4.252,1.728q6.593.014,13.186-.006a7.242,7.242,0,0,0,1.629-.22,6.789,6.789,0,0,0,3.48-2.369,5.887,5.887,0,0,0,1.52-3.994q.008-6.623-.008-13.245a6.8,6.8,0,0,0-.219-1.6,6.674,6.674,0,0,0-2.013-3.148,6.141,6.141,0,0,0-4.421-1.844q-6.563-.007-13.125.005a6.967,6.967,0,0,0-1.393.158A6.528,6.528,0,0,0,729,159.945a6.25,6.25,0,0,0-1.947,4.593C727.058,166.69,727.05,168.841,727.05,170.992Z" fill="#fff"/>
  </g>
  <g id="Group_438" data-name="Group 438" transform="translate(-600.882 -272.99)">
    <g id="Group_437" data-name="Group 437" transform="translate(604.667 296.737)">
      <path id="Path_220" data-name="Path 220" d="M625,475.826l3.428,0a17.812,17.812,0,0,0-23.763-.016l3.436,0A15.726,15.726,0,0,1,625,475.826Z" transform="translate(-604.667 -471.278)" fill="#fff"/>
    </g>
    <path id="Path_221" data-name="Path 221" d="M673.9,286.63a10.3,10.3,0,0,1-.363,3.192,6.639,6.639,0,0,1-6.856,4.506,6.5,6.5,0,0,1-5.944-5.621,12.147,12.147,0,0,1,.263-5.363,6.606,6.606,0,0,1,12.785,1.176C673.883,285.215,673.865,285.926,673.9,286.63Zm-11.24-.016.07.006c0,.451-.015.9,0,1.353a4.53,4.53,0,0,0,4.12,4.279,4.465,4.465,0,0,0,4.828-3.657,19.608,19.608,0,0,0,.092-3.251,4.517,4.517,0,0,0-8.887-.995A16.045,16.045,0,0,0,662.66,286.614Z" transform="translate(-50.715)" fill="#fff"/>
  </g>
</svg>
