<svg id="Group_380" data-name="Group 380" xmlns="http://www.w3.org/2000/svg" width="23.828" height="17.475" viewBox="0 0 23.828 17.475">
  <path id="Path_50" data-name="Path 50" d="M1498.189-152.282c2.732-1.491,6.076.6,6.438,3.591a6.44,6.44,0,0,1,.042.816.791.791,0,0,1-.793.811.783.783,0,0,1-.787-.84,3.175,3.175,0,0,0-2.18-3.151,2.294,2.294,0,0,0-1.956.184c.122.451.275.9.356,1.354a13.252,13.252,0,0,1,.165,1.549.777.777,0,0,1-.74.856.776.776,0,0,1-.834-.792,6.551,6.551,0,0,0-.58-2.669,5.1,5.1,0,0,0-3.47-3.014,4.558,4.558,0,0,0-4.61,1.454,5.919,5.919,0,0,0-1.6,3.807c-.01.148-.009.3-.022.446a.79.79,0,0,1-.834.768.79.79,0,0,1-.746-.83,7.786,7.786,0,0,1,.451-2.625c.033-.093.064-.187.1-.3a2.323,2.323,0,0,0-1.791-.247,3.144,3.144,0,0,0-2.365,3.132.822.822,0,0,1-.48.847.791.791,0,0,1-1.108-.692,4.75,4.75,0,0,1,3.877-4.894,3.964,3.964,0,0,1,2.6.435,6.358,6.358,0,0,1,5.417-3.012A6.356,6.356,0,0,1,1498.189-152.282Z" transform="translate(-1480.841 164.537)" fill="#1f1d59"/>
  <path id="Path_51" data-name="Path 51" d="M1501.374-174.738a3.928,3.928,0,0,1,3.918,3.96,3.926,3.926,0,0,1-3.967,3.884,3.92,3.92,0,0,1-3.877-3.921A3.919,3.919,0,0,1,1501.374-174.738Zm-2.337,3.91a2.325,2.325,0,0,0,2.292,2.346,2.333,2.333,0,0,0,2.375-2.319,2.341,2.341,0,0,0-2.3-2.348A2.334,2.334,0,0,0,1499.037-170.828Z" transform="translate(-1489.555 174.738)" fill="#1f1d59"/>
  <path id="Path_52" data-name="Path 52" d="M1489.786-163.06a3.01,3.01,0,0,1-3.024,3.024,3.016,3.016,0,0,1-3-3,3.008,3.008,0,0,1,3.012-3.034A3.007,3.007,0,0,1,1489.786-163.06Zm-1.588-.006a1.418,1.418,0,0,0-1.423-1.415,1.418,1.418,0,0,0-1.424,1.439,1.423,1.423,0,0,0,1.423,1.417A1.423,1.423,0,0,0,1488.2-163.067Z" transform="translate(-1482.374 170.19)" fill="#1f1d59"/>
  <path id="Path_53" data-name="Path 53" d="M1517.913-160.037a3.029,3.029,0,0,1-2.977-3.029,3.022,3.022,0,0,1,3.123-3.005,3.019,3.019,0,0,1,2.912,3.088A3.026,3.026,0,0,1,1517.913-160.037Zm1.471-3.015a1.428,1.428,0,0,0-1.412-1.431,1.432,1.432,0,0,0-1.446,1.424,1.435,1.435,0,0,0,1.439,1.433A1.431,1.431,0,0,0,1519.384-163.052Z" transform="translate(-1498.73 170.191)" fill="#1f1d59"/>
</svg>
